<svg width="218" height="52" viewBox="0 0 218 52" version="1.1" xmlns="http://www.w3.org/2000/svg"><title>logo-mc</title><g id="Exports" stroke="none" stroke-width="1" fill="none" fill-rule="evenodd"><g id="logo-mc" transform="translate(2 2)"><path d="M20.14 46.539c-.403 0-.803-.157-1.104-.472-.442-.465-10.89-11.463-15.633-19.156C.947 22.928.113 18.473.427 14.367.78 9.747 2.94 5.929 6.675 3.327c4.72-3.288 12.78-3.848 20.15 2.312.917.766 1.959 1.6 2.691 2.181.78-.623 1.89-1.513 2.713-2.19 7.57-6.2 15.486-5.681 19.97-2.417 8.025 5.836 7.978 16.34 3.442 23.698-3.247 5.267-6.33 9.316-9.706 12.746l-.09.091c-3.278 3.327-6.666 6.768-12.178 6.768-7.175 0-12.587-5.14-12.587-11.958 0-5.595 4.096-11.634 10.714-11.634 3.655 0 6.875 1.635 8.407 4.266a1.521 1.521 0 1 1-2.63 1.531c-.74-1.27-2.697-2.752-5.777-2.752-4.737 0-7.67 4.458-7.67 8.589 0 4.43 3.278 8.913 9.543 8.913 4.237 0 6.912-2.714 10.01-5.86l.088-.09c3.21-3.261 6.162-7.14 9.285-12.208 5.254-8.524 2.148-16.155-2.64-19.64-4.887-3.555-11.85-1.292-16.251 2.312a407.503 407.503 0 0 1-3.687 2.968 1.523 1.523 0 0 1-1.883.01c-.083-.065-2.066-1.607-3.716-2.988-4.28-3.576-11.255-5.775-16.457-2.15-6.773 4.72-6.168 13.41-2.421 19.487 4.577 7.425 15.14 18.543 15.247 18.654a1.523 1.523 0 0 1-1.103 2.573" id="logo" fill="#F8485E"/><g id="text" transform="translate(67 6)" fill="#888B8D"><path d="M1.97 24.586c0-.618.492-1.127 1.128-1.127h.236c.49 0 .818.255 1.036.6l3.854 6.035 3.872-6.053c.236-.382.564-.582 1.018-.582h.237c.636 0 1.127.51 1.127 1.127V35.24c0 .617-.491 1.109-1.127 1.109-.6 0-1.11-.51-1.11-1.11v-7.634l-3.108 4.672c-.236.363-.527.581-.945.581-.4 0-.691-.218-.927-.581L4.17 27.64v7.617c0 .618-.491 1.09-1.11 1.09a1.071 1.071 0 0 1-1.09-1.09v-10.67z" id="Fill-4"/><path d="M25 31.512v-.036c0-1.69-1.217-3.09-2.944-3.09-1.763 0-2.89 1.381-2.89 3.053v.037c0 1.672 1.217 3.072 2.926 3.072 1.781 0 2.908-1.381 2.908-3.036m-8.034 0v-.036c0-2.745 2.181-5.018 5.126-5.018 2.945 0 5.108 2.236 5.108 4.981v.037c0 2.726-2.182 4.999-5.144 4.999-2.927 0-5.09-2.236-5.09-4.963" id="Fill-6"/><path d="M29.889 33.603v-5.054h-.364a.939.939 0 0 1-.945-.945c0-.527.418-.945.945-.945h.364v-1.636c0-.6.49-1.091 1.109-1.091.6 0 1.09.49 1.09 1.09v1.637h1.727c.528 0 .964.418.964.945a.954.954 0 0 1-.964.945H32.09v4.709c0 .854.435 1.199 1.181 1.199.255 0 .472-.054.545-.054.49 0 .928.4.928.909 0 .4-.273.727-.582.854a4.376 4.376 0 0 1-1.509.255c-1.618 0-2.763-.71-2.763-2.818" id="Fill-8"/><path d="M36.905 23.986c0-.6.472-1.09 1.09-1.09.618 0 1.11.49 1.11 1.09v4.145c.617-.891 1.508-1.672 2.998-1.672 2.164 0 3.418 1.454 3.418 3.671v5.127c0 .618-.473 1.09-1.091 1.09s-1.109-.472-1.109-1.09v-4.454c0-1.49-.745-2.345-2.054-2.345-1.272 0-2.163.891-2.163 2.382v4.417c0 .618-.491 1.09-1.109 1.09-.6 0-1.09-.472-1.09-1.09v-11.27z" id="Fill-10"/><path d="M54.754 30.785c-.146-1.418-.982-2.527-2.436-2.527-1.345 0-2.29 1.036-2.49 2.527h4.926zm-2.182 5.69c-2.781 0-4.926-2.018-4.926-4.981v-.036c0-2.745 1.945-5 4.69-5 3.054 0 4.563 2.51 4.563 4.727 0 .618-.473 1.054-1.036 1.054h-6.017c.236 1.564 1.345 2.436 2.763 2.436.927 0 1.654-.327 2.272-.836.163-.127.309-.2.563-.2.49 0 .873.382.873.89 0 .274-.127.51-.291.673-.873.782-1.963 1.273-3.454 1.273z" id="Fill-12"/><path d="M59.151 27.658c0-.618.473-1.109 1.09-1.109.619 0 1.11.491 1.11 1.11v.98c.508-1.199 1.454-2.108 2.417-2.108.691 0 1.09.455 1.09 1.09 0 .583-.38.964-.871 1.056-1.564.272-2.636 1.472-2.636 3.744v2.836c0 .6-.491 1.09-1.11 1.09-.6 0-1.09-.472-1.09-1.09v-7.599z" id="Fill-14"/><path d="M67.185 27.658c.836-.254 1.272-.818 1.235-1.636-.527-.127-1.035-.563-1.035-1.218v-.145c0-.69.49-1.218 1.236-1.218.8 0 1.309.618 1.309 1.6v.181c0 1.237-.328 2.091-.891 2.655-.49.49-1.2.781-1.71.781-.38 0-.562-.218-.562-.509 0-.254.181-.418.418-.49" id="Fill-16"/><path d="M70.947 35.293c-.237-.127-.418-.4-.418-.763 0-.491.381-.891.89-.891.182 0 .346.054.473.127.927.619 1.89.927 2.763.927.945 0 1.49-.4 1.49-1.036v-.036c0-.745-1.017-1-2.144-1.346-1.418-.4-3-.981-3-2.817v-.036c0-1.818 1.509-2.927 3.418-2.927 1.018 0 2.09.29 3.017.782.31.164.527.454.527.836 0 .509-.4.89-.909.89a.866.866 0 0 1-.435-.108c-.782-.4-1.582-.655-2.255-.655-.854 0-1.345.4-1.345.945v.037c0 .709 1.036 1 2.163 1.363 1.4.436 2.981 1.072 2.981 2.8v.036c0 2.018-1.563 3.018-3.562 3.018a6.557 6.557 0 0 1-3.654-1.146" id="Fill-18"/><path d="M85.25 29.93v-.036c0-3.617 2.709-6.58 6.563-6.58 1.963 0 3.254.581 4.363 1.436.236.182.436.49.436.89 0 .618-.49 1.091-1.109 1.091-.309 0-.527-.109-.673-.218-.872-.709-1.817-1.145-3.035-1.145-2.418 0-4.2 2-4.2 4.49v.036c0 2.491 1.764 4.509 4.2 4.509 1.345 0 2.254-.437 3.181-1.219.164-.145.4-.254.672-.254.564 0 1.055.473 1.055 1.036 0 .345-.164.618-.364.8-1.2 1.055-2.563 1.71-4.617 1.71-3.708 0-6.471-2.891-6.471-6.545" id="Fill-20"/><path d="M98.973 23.986c0-.6.473-1.09 1.09-1.09.618 0 1.11.49 1.11 1.09v4.145c.617-.891 1.508-1.672 2.999-1.672 2.163 0 3.417 1.454 3.417 3.671v5.127c0 .618-.472 1.09-1.09 1.09-.619 0-1.11-.472-1.11-1.09v-4.454c0-1.49-.744-2.345-2.054-2.345-1.272 0-2.162.891-2.162 2.382v4.417c0 .618-.492 1.09-1.11 1.09-.6 0-1.09-.472-1.09-1.09v-11.27z" id="Fill-22"/><path d="M117.75 31.512v-.036c0-1.69-1.219-3.09-2.945-3.09-1.764 0-2.89 1.381-2.89 3.053v.037c0 1.672 1.217 3.072 2.926 3.072 1.781 0 2.908-1.381 2.908-3.036m-8.035 0v-.036c0-2.745 2.182-5.018 5.127-5.018s5.108 2.236 5.108 4.981v.037c0 2.726-2.182 4.999-5.144 4.999-2.927 0-5.09-2.236-5.09-4.963" id="Fill-24"/><path d="M122.31 27.658c0-.618.473-1.109 1.091-1.109s1.11.491 1.11 1.11v7.598c0 .618-.492 1.09-1.11 1.09-.6 0-1.09-.472-1.09-1.09v-7.599zm-.163-3.58c0-.655.545-1.073 1.254-1.073s1.254.418 1.254 1.072v.11c0 .654-.545 1.09-1.254 1.09s-1.254-.436-1.254-1.09v-.11z" id="Fill-26"/><path d="M126.854 31.512v-.036c0-2.727 2.109-5.018 4.999-5.018 1.509 0 2.545.491 3.363 1.2.146.128.345.4.345.764a1 1 0 0 1-1.017 1c-.273 0-.51-.11-.655-.219-.563-.472-1.182-.817-2.054-.817-1.6 0-2.781 1.381-2.781 3.053v.037c0 1.709 1.181 3.072 2.872 3.072.872 0 1.545-.346 2.145-.854a.957.957 0 0 1 .6-.237c.527 0 .945.436.945.964 0 .29-.11.527-.31.69-.853.818-1.89 1.364-3.49 1.364-2.853 0-4.962-2.236-4.962-4.963" id="Fill-28"/><path d="M144.067 30.785c-.145-1.418-.981-2.527-2.436-2.527-1.344 0-2.29 1.036-2.49 2.527h4.926zm-2.181 5.69c-2.781 0-4.927-2.018-4.927-4.981v-.036c0-2.745 1.946-5 4.69-5 3.055 0 4.563 2.51 4.563 4.727 0 .618-.472 1.054-1.036 1.054h-6.016c.236 1.564 1.345 2.436 2.762 2.436.928 0 1.655-.327 2.273-.836.163-.127.309-.2.563-.2.49 0 .873.382.873.89 0 .274-.127.51-.291.673-.873.782-1.963 1.273-3.454 1.273z" id="Fill-30"/><path d="M23.087 3.185h5.88a.783.783 0 0 0 0-1.567h-2.051L26.49.605a.782.782 0 1 0-1.444.606l.17.407h-2.13a.784.784 0 0 0 0 1.567" id="Fill-32"/><path d="M29.75 9.67a.784.784 0 0 0-.784-.784h-2.068.392a.392.392 0 0 1-.392-.392v-.828c0-.216.175-.391.392-.391h1.676a.784.784 0 0 0 0-1.567h-.692l.336-1.075a.784.784 0 0 0-1.496-.467l-.482 1.542h-1.117l-.481-1.542a.783.783 0 0 0-1.496.467l.335 1.075h-.786a.784.784 0 0 0 0 1.567h1.852c.217 0 .392.175.392.391v.828a.392.392 0 0 1-.392.392h-1.852a.784.784 0 0 0 0 1.567h1.505l-2.006 2.984a.784.784 0 0 0 1.301.874l1.444-2.148v3.814a.784.784 0 0 0 1.567 0v-5.132c0-.216.175-.392.392-.392h1.676a.784.784 0 0 0 .784-.784" id="Fill-34"/><path d="M29.52 12.788l-.47-1.036a.782.782 0 1 0-1.427.647l.469 1.035a.784.784 0 0 0 1.427-.646" id="Fill-36"/><path d="M32.397 9.464a.392.392 0 0 1-.391-.392v-.95c0-.217.175-.392.391-.392h3.493c.216 0 .392.175.392.391v.951a.392.392 0 0 1-.392.392h-3.493zm-.391-6.771c0-.216.175-.392.391-.392h3.493c.216 0 .392.176.392.392v.95a.392.392 0 0 1-.392.392h-3.493a.392.392 0 0 1-.391-.392v-.95zm0 3.45v-.52c0-.217.175-.393.391-.393h3.493c.216 0 .392.176.392.392v.521a.392.392 0 0 1-.392.392h-3.493a.392.392 0 0 1-.391-.392zm5.81 6.205a.783.783 0 0 0-.784.784V14.5a.392.392 0 0 1-.392.391h-.39a.392.392 0 0 1-.393-.391v-3.077c0-.217.176-.392.392-.392h.816c.433 0 .784-.35.784-.783v-8.73a.784.784 0 0 0-.784-.784h-5.843a.784.784 0 0 0-.784.783v8.73c0 .433.352.784.784.784h.604c-.141 2.718-1.342 3.668-2.517 4.23a.784.784 0 0 0 .676 1.414c1.4-.67 3.237-1.986 3.406-5.644h.507c.217 0 .392.175.392.392v3.746c0 .71.579 1.29 1.29 1.29h1.727c.713 0 1.292-.58 1.292-1.292v-2.035a.784.784 0 0 0-.784-.784z" id="Fill-38"/><path d="M98.478 9.343h3.2l-.515.959h-2.171l-.514-.959zm-1.863-6.02a.196.196 0 0 1-.196-.195V2.45c0-.109.087-.197.196-.197h1.323c.108 0 .196.088.196.197v.677a.196.196 0 0 1-.196.196h-1.323zm4.046-1.069c.108 0 .196.088.196.197v.677a.196.196 0 0 1-.196.196h-1.13a.196.196 0 0 1-.195-.196V2.45c0-.109.088-.197.195-.197h1.13zm2.917 0c.108 0 .196.088.196.197v.677a.196.196 0 0 1-.196.196h-1.323a.196.196 0 0 1-.196-.196V2.45c0-.109.088-.197.196-.197h1.323zm1.157 10.525h-3.582a.392.392 0 0 1-.392-.392v-.565h2.644a.76.76 0 1 0 0-1.52h-.845l.492-.959h1.569a.76.76 0 0 0 0-1.52h-3.372a.392.392 0 0 1-.392-.393v-.565h2.706a.647.647 0 1 0 0-1.292h-2.314a.392.392 0 0 1-.392-.392v-.565h3.677c.42 0 .76-.34.76-.76V1.494a.76.76 0 0 0-.76-.76h-8.876c-.42 0-.76.34-.76.76v2.362c0 .42.34.76.76.76h3.678v.565a.392.392 0 0 1-.392.392h-2.418a.647.647 0 1 0 0 1.292h2.81v.565a.392.392 0 0 1-.392.392h-3.475a.76.76 0 1 0 0 1.521h1.634l.492.959h-.999a.76.76 0 0 0 0 1.52h2.644v.565a.392.392 0 0 1-.392.392h-3.493a.646.646 0 1 0 0 1.293h3.885v1.958a.76.76 0 0 0 1.521 0v-1.958h3.974a.647.647 0 1 0 0-1.293z" id="Fill-40"/><path d="M92.771 4.954h.653a.76.76 0 0 0 0-1.52h-.653a.392.392 0 0 1-.392-.393V.91a.76.76 0 0 0-1.521 0v2.131a.392.392 0 0 1-.391.392h-1.114a.76.76 0 1 0 0 1.521h1.114c.216 0 .391.176.391.392v3.549l-1.682.596a.76.76 0 1 0 .507 1.433l1.175-.416v4.36c-.05.23-.104.256-.263.256-.143 0-.344-.076-.606-.227-.261-.152-.463-.227-.605-.227-.178 0-.336.083-.472.249-.136.166-.204.329-.204.49 0 .272.19.505.573.698.383.193.82.29 1.314.29.6 0 1.206-.144 1.527-.711 0 0 .257-.41.257-.817v-4.9l1.298-.46a.76.76 0 1 0-.507-1.433l-.79.28v-3.01c0-.216.175-.392.391-.392" id="Fill-42"/><path d="M78.236 4.926h1.96c.216 0 .391.176.391.392v2.087a.392.392 0 0 1-.392.391h-2.064c.074-.963.102-1.931.105-2.87zm4.42 4.437a.783.783 0 0 0 0-1.567h-.11a.392.392 0 0 1-.392-.391V4.142a.783.783 0 0 0-.783-.783H78.63a.392.392 0 0 1-.392-.392V.94a.784.784 0 0 0-1.567 0v2.028a.392.392 0 0 1-.392.392h-1.697a.784.784 0 0 0 0 1.567h2.086a36.551 36.551 0 0 1-.115 2.87h-2.747a.784.784 0 0 0 0 1.567h2.564c-.516 3.394-1.72 5.275-3.73 5.921a.783.783 0 1 0 .479 1.492c3.125-1.004 4.373-4.04 4.847-7.413h4.69z" id="Fill-44"/><path d="M83.056 15.36c-1.335-.791-2.255-2.232-2.81-4.406a.784.784 0 0 0-1.518.388c.664 2.597 1.818 4.352 3.529 5.366a.784.784 0 0 0 .8-1.347" id="Fill-46"/><path d="M72.36 8.538a.761.761 0 0 0-.97-.463l-.79.28v-3.01c0-.216.175-.391.39-.391h.653a.76.76 0 1 0 0-1.52h-.652a.392.392 0 0 1-.392-.392V.91a.76.76 0 0 0-1.52 0v2.132a.392.392 0 0 1-.393.391h-1.114a.761.761 0 0 0 0 1.521h1.114c.217 0 .392.176.392.392v3.549l-1.682.596a.76.76 0 0 0 .507 1.433l1.175-.416v4.361c-.05.228-.104.255-.264.255-.142 0-.344-.076-.605-.228-.261-.15-.463-.227-.605-.227-.179 0-.336.084-.472.25-.137.166-.204.33-.204.49 0 .272.19.505.574.698.382.193.82.29 1.312.29.6 0 1.206-.144 1.528-.711 0 0 .257-.41.257-.817v-4.9l1.298-.46a.761.761 0 0 0 .463-.97" id="Fill-48"/><path d="M3.624 12.538l-.024.382.218-4.165c.011-.2.182-.354.383-.344h8.468c.216 0 .391.176.391.392v3.725a.392.392 0 0 1-.391.392h-8.7a.364.364 0 0 1-.345-.382zm9.045-10.203c.216 0 .391.176.391.392v3.726a.392.392 0 0 1-.391.39H4.287a.363.363 0 0 1-.344-.381l-.005.01.2-3.798a.363.363 0 0 1 .38-.339h8.15zm2.88 10.585h-.53a.392.392 0 0 1-.391-.392V8.803c0-.216.175-.392.391-.392h.409a.784.784 0 0 0 0-1.567h-.409a.392.392 0 0 1-.391-.391V1.552a.784.784 0 0 0-.784-.784H3.476l-.001.005h-.44a.363.363 0 0 0-.381.344l-.002-.002-.285 5.435a.359.359 0 0 1-.37.294h-.786a.784.784 0 0 0 0 1.567h.694c.201.01.355.182.344.382l-.278 5.317a.363.363 0 0 0 .343.377H13.06c-.196.659-.654.988-1.556.988-.552 0-1.382-.16-2.492-.48l-.828-.231c-.154 0-.292.088-.414.266-.121.178-.182.341-.182.49 0 .171.053.311.16.418.107.107.589.273 1.447.499.857.225 1.624.338 2.3.338 1.733 0 2.728-.763 2.983-2.288h1.071a.784.784 0 0 0 0-1.567z" id="Fill-50"/><path d="M8.285 9.528a.783.783 0 1 0-1.103 1.113l1.173 1.162a.78.78 0 0 0 1.107-.005.784.784 0 0 0-.005-1.108L8.285 9.528z" id="Fill-52"/><path d="M8.354 5.727a.781.781 0 0 0 1.108-.005.783.783 0 0 0-.005-1.108L8.284 3.452a.783.783 0 1 0-1.102 1.113l1.172 1.162z" id="Fill-54"/><path d="M47.092 5.26c0-.217.175-.393.392-.393h2.792c.217 0 .392.176.392.392v3.85a.392.392 0 0 1-.392.391h-2.792a.392.392 0 0 1-.392-.392V5.26zm0 9.303v-3.476c0-.217.175-.392.392-.392h2.792c.217 0 .392.175.392.392v3.476c0 .141-.079.26-.19.329h-3.195a.386.386 0 0 1-.191-.329zm5.143-10.479a.784.784 0 0 0-.783-.784h-1.874l.86-2.084a.784.784 0 0 0-1.45-.597L47.883 3.3h-1.575a.784.784 0 0 0-.783.784v11.59c0 .433.35.785.783.785h5.146a.784.784 0 0 0 .784-.784c0-.008-.003-.015-.003-.022V4.084z" id="Fill-56"/><path d="M60.572 12.682V4.144a.783.783 0 0 0-.784-.784h-3.654c.11-.501.165-1.086.165-1.8V.917a.783.783 0 0 0-1.567 0v.643c0 1.908-.39 2.45-1.282 3.233a.784.784 0 0 0 1.034 1.178c.387-.34.712-.672.976-1.044h3.545-.392c.216 0 .392.176.392.392v7.363c0 1.559-.49 2.693-2.169 2.693-.518 0-.754-.022-1.857-.454a.976.976 0 0 0-.329-.078.721.721 0 0 0-.57.285.936.936 0 0 0-.232.616c0 .204.071.378.212.515.063.061.236.32 1.33.549 2.112.442 3.703.163 4.65-1.23.61-.978.532-2.896.532-2.896" id="Fill-58"/><path d="M55.701 11.2a.76.76 0 1 0 1.348-.704l-1.043-2a.76.76 0 0 0-1.349.704l1.044 2z" id="Fill-60"/></g></g></g></svg>