<?xml version="1.0" standalone="no"?>
<!DOCTYPE svg PUBLIC "-//W3C//DTD SVG 20010904//EN"
 "http://www.w3.org/TR/2001/REC-SVG-20010904/DTD/svg10.dtd">
<svg version="1.0" xmlns="http://www.w3.org/2000/svg"
 width="219.000000pt" height="230.000000pt" viewBox="0 0 219.000000 230.000000"
 preserveAspectRatio="xMidYMid meet">
<metadata>
Created by potrace 1.10, written by Peter Selinger 2001-2011
</metadata>
<g transform="translate(0.000000,230.000000) scale(0.100000,-0.100000)"
fill="#000000" stroke="none">
<path d="M940 2167 c-180 -61 -325 -227 -374 -428 -22 -89 -21 -237 2 -325 31
-117 78 -201 162 -284 115 -115 218 -160 370 -160 243 0 439 162 521 430 29
95 31 251 5 350 -56 207 -207 369 -395 424 -81 24 -211 21 -291 -7z"/>
<path d="M580 807 c-80 -51 -201 -127 -270 -169 -69 -42 -144 -96 -167 -120
-104 -107 -118 -275 -31 -374 l30 -34 960 0 960 0 28 28 c59 60 61 181 5 297
-41 86 -113 145 -377 310 l-248 155 -62 0 c-44 0 -75 -7 -107 -22 -83 -41
-360 -36 -428 8 -13 8 -48 14 -85 14 -63 0 -65 -1 -208 -93z"/>
</g>
</svg>
